<?xml version="1.0" encoding="utf-8"?>
<!-- Generator: Adobe Illustrator 28.0.0, SVG Export Plug-In . SVG Version: 6.00 Build 0)  -->
<svg version="1.1" id="Layer_1" xmlns="http://www.w3.org/2000/svg" xmlns:xlink="http://www.w3.org/1999/xlink" x="0px" y="0px"
	 viewBox="0 0 612 792" style="enable-background:new 0 0 612 792;" xml:space="preserve">
<style type="text/css">
	.st0{fill:#F9C8D7;}
</style>
<g>
	<path class="st0" d="M403.6,337.82c6.26,14.92,6.63,32.75,4.28,48.74c-2.26,15.2-7.18,29.94-14.37,43.54
		c-5.36,10.13-14.15,26.73-25.48,31.19c-12.52,4.92-20.54-7.51-22.93-17.95c-0.35-1.52-0.61-3.03-0.86-4.55
		c-6.15,11.2-17.73,25.9-29.98,16.1c-10.85-8.65-4.13-28.38,1.58-40.44c-9.47-0.46-18.89-1.91-28.21-4.44
		c-1.27,9.09-3.29,18.08-6.24,26.82c-3.36,9.95-8.5,26.71-21.92,26.14c-11.66-0.53-15.73-12.78-14.37-22.58
		c1.03-7.36,4.06-14.67,3.56-22.19c-0.35-5.38-6.11-16.83-11.8-8.3c-1.82,2.72-1.23,6.55-0.83,9.56c1.52,11.49,8.7,26.62-1.34,36.53
		c-8.59,8.48-20.08,2.5-25.9-5.82c-16.52-23.64-18.89-56.32-15.29-84.22c0.29-2.26,5.49-21.48,7.4-20.69
		c-20.17-8.37-34.47-25.92-35.78-46.5c-6.79-0.72-13.64,0.13-20.14,2.53c-1.67,0.62-3.6-0.68-4.04-2.31
		c-0.51-1.82,0.62-3.43,2.28-4.04c6.99-2.57,14.54-3.49,21.92-2.79c0.18-2.57,0.55-5.1,1.12-7.56c-9.14-3.01-19.07-3.25-28.4-0.7
		c-4.11,1.12-5.84-5.23-1.76-6.35c10.59-2.88,21.75-2.57,32.07,0.77c2.2-5.82,5.49-11.23,9.64-15.99
		c-2.57-14.39,1.3-29.06,10.52-40.44c1.23-1.52,3.78-1.58,5.34-0.7c8.83,5.05,16.5,12.1,22.23,20.49c3.8-0.66,7.71-0.99,11.71-0.99
		c3.78,0,7.47,0.29,11.05,0.88c6.26-9.03,15.35-15.82,26.03-19.26c1.82-0.59,4.02,0.75,4.83,2.33c5.82,11.29,8.37,24.23,7.18,36.9
		c5.01,5.54,8.83,11.95,11.09,18.94c10.26-3.27,21.31-3.56,31.81-0.7c4.09,1.1,2.33,7.47-1.76,6.35
		c-9.36-2.55-19.31-2.31-28.45,0.72c0.46,2.46,0.72,4.99,0.77,7.56c7.51-0.77,15.2,0.13,22.3,2.75c1.69,0.61,2.81,2.22,2.31,4.06
		c-0.44,1.6-2.37,2.92-4.04,2.31c-6.72-2.48-13.84-3.32-20.82-2.44c-0.7,6.15-2.57,11.99-5.38,17.38
		c11.09,4.74,17.6,9.42,30.25,5.89c10.87-3.03,20.45-9.42,31.04-13.2c12.59-4.53,25.9-4.24,37.52,2.79c0.66,0.4,1.27,0.81,1.89,1.21
		c19.55-25.11,25.85-58.43,16.56-89.32c-5.32-17.66,22.25-25.15,27.55-7.58C441.82,259.68,431.67,305.29,403.6,337.82z"/>
</g>
<path d="M255.08,285.28c-6.29-6.35-16.1-6.35-22.37,0.04c-3.61,3.68,2.04,9.34,5.66,5.66c3.25-3.31,7.78-3.34,11.05-0.04
	C253.05,294.6,258.71,288.94,255.08,285.28z"/>
<path d="M231.49,305.21c-1.49-1.9-2.97-3.8-4.46-5.7c-0.71-0.91-1.41-1.83-2.13-2.73c-0.8-0.99-1.8-1.84-3.15-1.81
	c-1.21,0.03-2.13,0.74-2.86,1.65c-0.74,0.92-1.44,1.86-2.17,2.79c-1.46,1.89-2.92,3.78-4.39,5.66c-1.58,2.04,1.57,4.51,3.15,2.47
	c1.21-1.56,2.42-3.12,3.62-4.68c0.64-0.82,1.27-1.64,1.91-2.46c0.27-0.35,0.54-0.7,0.81-1.05c0.29,0.36,0.57,0.73,0.85,1.09
	c0.61,0.79,1.23,1.57,1.84,2.36l3.78,4.83C229.89,309.65,233.08,307.24,231.49,305.21z"/>
<path d="M200.56,279.6c-10.3,0-10.31,16,0,16C210.86,295.6,210.87,279.6,200.56,279.6z"/>
</svg>
